<?xml version="1.0" encoding="UTF-8" standalone="no"?>
<!DOCTYPE svg PUBLIC "-//W3C//DTD SVG 1.1//EN" "http://www.w3.org/Graphics/SVG/1.1/DTD/svg11.dtd">
<svg version="1.1" xmlns="http://www.w3.org/2000/svg" xmlns:xlink="http://www.w3.org/1999/xlink" preserveAspectRatio="xMidYMid meet" viewBox="0 0 640 640" width="1140" height="1140"><defs><path d="M640 0C640 0 640 0 640 0C640 274.02 640 426.26 640 456.7C640 456.7 640 456.7 640 456.7C256 456.7 42.67 456.7 0 456.7C0 456.7 0 456.7 0 456.7C0 182.68 0 30.45 0 0C0 0 0 0 0 0C384 0 597.33 0 640 0Z" id="b1rz0YwMrH"></path><path d="M0 351.1L0 456.7L640 456.7L640 0L0 351.1Z" id="c4l3QYAJM7"></path><path d="M640 351.1C640 351.1 640 351.1 640 351.1C640 414.46 640 449.66 640 456.7C640 456.7 640 456.7 640 456.7C256 456.7 42.67 456.7 0 456.7C0 456.7 0 456.7 0 456.7C0 393.34 0 358.14 0 351.1C0 351.1 0 351.1 0 351.1C384 351.1 597.33 351.1 640 351.1Z" id="a9BQCpq8SL"></path><path d="M640 352.08C375.29 352.08 228.22 352.08 198.81 352.08C173.99 352.08 153.65 372.82 153.65 398.12C153.65 423.43 173.99 444.17 198.81 444.17C228.22 444.17 375.29 444.17 640 444.17L640 352.08Z" id="fz7LVBVjV"></path><path d="M560.5 400.69L609.14 400.69L632.78 400.69L632.78 390.34L609.14 348.68L609.14 122.14L560.5 122.14L560.5 400.69Z" id="a10nOubp86"></path><path d="M595.29 400.69L609.14 400.69L632.78 400.69L632.78 390.34L609.14 348.68L609.14 122.14L595.29 122.14L595.29 400.69Z" id="cefDVR7U3"></path><path d="M572.11 122.14L560.5 122.14L560.5 156.68L560.5 400.69L572.11 400.69L583.73 400.69L583.73 348.68L572.11 374.68L572.11 148.43L609.14 122.14L572.11 122.14Z" id="fcRoei977"></path><path d="M617.69 111.8C617.69 111.8 617.69 111.8 617.69 111.8C617.69 118.01 617.69 121.45 617.69 122.14C617.69 122.14 617.69 122.14 617.69 122.14C578.22 122.14 556.29 122.14 551.91 122.14C551.91 122.14 551.91 122.14 551.91 122.14C551.91 115.94 551.91 112.49 551.91 111.8C551.91 111.8 551.91 111.8 551.91 111.8C591.38 111.8 613.31 111.8 617.69 111.8Z" id="a1sBZbm33Z"></path><path d="M617.74 111.8C617.74 111.8 617.74 111.8 617.74 111.8C617.74 118.01 617.74 121.45 617.74 122.14C617.74 122.14 617.74 122.14 617.74 122.14C604.27 122.14 596.79 122.14 595.29 122.14C595.29 122.14 595.29 122.14 595.29 122.14C595.29 115.94 595.29 112.49 595.29 111.8C595.29 111.8 595.29 111.8 595.29 111.8C608.76 111.8 616.24 111.8 617.74 111.8Z" id="bu2KN02uM"></path><path d="M589.99 348.68C589.99 348.68 589.99 348.68 589.99 348.68C589.99 379.88 589.99 397.22 589.99 400.69C589.99 400.69 589.99 400.69 589.99 400.69C586.23 400.69 584.14 400.69 583.73 400.69C583.73 400.69 583.73 400.69 583.73 400.69C583.73 369.48 583.73 352.15 583.73 348.68C583.73 348.68 583.73 348.68 583.73 348.68C587.48 348.68 589.57 348.68 589.99 348.68Z" id="b20IOjtg"></path><path d="M353.6 122.14L304.96 122.14L304.96 348.68L281.28 390.34L281.28 400.69L304.96 400.69L353.6 400.69L353.6 122.14Z" id="aTzdmCZwu"></path><path d="M318.81 122.14L304.96 122.14L304.96 348.68L281.28 390.34L281.28 400.69L304.96 400.69L318.81 400.69L318.81 122.14Z" id="b4gG6Xgsu"></path><path d="M330.38 400.69L341.99 400.69L353.6 400.69L353.6 156.68L353.6 122.14L341.99 122.14L304.96 122.14L341.99 148.43L341.99 374.68L330.38 348.68L330.38 400.69Z" id="a72fG8SQt"></path><path d="M362.15 111.8C362.15 111.8 362.15 111.8 362.15 111.8C362.15 118.01 362.15 121.45 362.15 122.14C362.15 122.14 362.15 122.14 362.15 122.14C322.68 122.14 300.75 122.14 296.37 122.14C296.37 122.14 296.37 122.14 296.37 122.14C296.37 115.94 296.37 112.49 296.37 111.8C296.37 111.8 296.37 111.8 296.37 111.8C335.84 111.8 357.76 111.8 362.15 111.8Z" id="avolmybem"></path><path d="M318.81 111.8C318.81 111.8 318.81 111.8 318.81 111.8C318.81 118.01 318.81 121.45 318.81 122.14C318.81 122.14 318.81 122.14 318.81 122.14C305.34 122.14 297.86 122.14 296.37 122.14C296.37 122.14 296.37 122.14 296.37 122.14C296.37 115.94 296.37 112.49 296.37 111.8C296.37 111.8 296.37 111.8 296.37 111.8C309.83 111.8 317.32 111.8 318.81 111.8Z" id="c2vCR28sxC"></path><path d="M330.42 348.68C330.42 348.68 330.42 348.68 330.42 348.68C330.42 379.88 330.42 397.22 330.42 400.69C330.42 400.69 330.42 400.69 330.42 400.69C326.67 400.69 324.58 400.69 324.16 400.69C324.16 400.69 324.16 400.69 324.16 400.69C324.16 369.48 324.16 352.15 324.16 348.68C324.16 348.68 324.16 348.68 324.16 348.68C327.92 348.68 330.01 348.68 330.42 348.68Z" id="b12ITjZ0r"></path><path d="M543.59 261.81C543.59 258.27 543.59 229.94 543.59 226.39C543.59 222.9 540.75 220.01 537.33 220.01C534.85 220.01 515.07 220.01 512.59 220.01C509.17 220.01 506.33 222.9 506.33 226.39C506.33 229.94 506.33 258.27 506.33 261.81C506.33 265.31 509.17 268.2 512.59 268.2C514.24 268.2 522.49 268.2 537.33 268.2C541.5 266.27 543.59 264.14 543.59 261.81Z" id="cYzri3V93"></path><path d="M411.7 261.81C411.7 258.27 411.7 229.94 411.7 226.39C411.7 222.9 408.87 220.01 405.44 220.01C402.97 220.01 383.18 220.01 380.71 220.01C377.28 220.01 374.45 222.85 374.45 226.39C374.45 229.94 374.45 258.27 374.45 261.81C374.45 265.31 377.28 268.2 380.71 268.2C382.36 268.2 390.6 268.2 405.44 268.2C409.62 266.27 411.7 264.14 411.7 261.81Z" id="dhxj21TF9"></path><path d="M530.42 256.41C537.65 256.41 543.54 250.39 543.54 243.03C543.54 240.36 543.54 218.96 543.54 216.28C543.54 201.93 532.53 190.04 518.67 189.07C517.86 185.99 511.35 161.34 510.54 158.26C506.61 143.35 411.47 143.35 407.54 158.26C406.73 161.34 400.22 185.99 399.41 189.07C385.55 190.04 374.54 201.93 374.54 216.28C374.54 218.96 374.54 240.36 374.54 243.03C374.54 250.39 380.43 256.41 387.66 256.41C392.41 256.41 416.2 256.41 459.02 256.41C501.86 256.41 525.66 256.41 530.42 256.41Z" id="aNIBeVeuu"></path><path d="M516.8 210.6C525.49 210.6 533.21 206.36 538.1 199.78C533.58 193.73 526.58 189.62 518.67 189.07C518.5 188.4 517.61 185.08 516.02 179.09L459.02 179.09L402.01 179.09C400.42 185.08 399.54 188.4 399.36 189.07C391.45 189.62 384.5 193.73 379.93 199.78C384.82 206.36 392.55 210.6 401.23 210.6C405.09 210.6 424.35 210.6 459.02 210.6C493.69 210.6 512.95 210.6 516.8 210.6Z" id="eZOkbeqiY"></path><path d="M507.57 159.01C507.15 157.52 504.64 156.16 503.41 155.56C500.02 153.97 495.95 153 492.3 152.3C487.18 151.32 481.92 150.67 476.75 150.29C470.86 149.83 464.96 149.59 459.06 149.59C453.17 149.59 447.22 149.78 441.37 150.29C436.16 150.71 430.95 151.32 425.83 152.3C422.17 153 418.1 153.97 414.72 155.56C413.49 156.16 410.97 157.47 410.56 159.01C409.73 162 403.07 185.98 402.24 188.97C440.05 184.68 477.99 184.68 515.89 188.97C514.22 182.98 508.4 162 507.57 159.01Z" id="b1OQdeTX1"></path><path d="M500.62 154.44C497.92 153.46 494.95 152.81 492.25 152.3C487.13 151.32 481.87 150.67 476.71 150.29C470.81 149.83 464.91 149.59 459.02 149.59C453.12 149.59 447.18 149.78 441.33 150.29C436.11 150.71 430.9 151.32 425.78 152.3C422.13 153 418.06 153.97 414.67 155.56C413.44 156.16 410.93 157.47 410.51 159.01C409.68 162 403.03 185.98 402.19 188.97C421.81 186.74 441.51 185.71 461.17 185.76C477.44 176.72 490.97 165.81 500.62 154.44Z" id="dgXFyN8wY"></path><path d="M401.28 188.55C401.28 188.19 401.28 185.28 401.28 184.92C401.28 181.7 398.67 179.05 395.52 179.05C394.49 179.05 386.26 179.05 385.23 179.05C384 179.05 382.99 180.07 382.99 181.33C382.99 182.05 382.99 187.83 382.99 188.55C382.99 189.81 384 190.84 385.23 190.84C386.15 190.84 390.76 190.84 399.04 190.84C400.53 190.15 401.28 189.39 401.28 188.55Z" id="bbgIaI7Hm"></path><path d="M534.31 188.55C534.31 187.83 534.31 182.05 534.31 181.33C534.31 180.07 533.3 179.05 532.07 179.05C531.04 179.05 522.81 179.05 521.78 179.05C518.58 179.05 516.02 181.7 516.02 184.92C516.02 185.28 516.02 188.19 516.02 188.55C516.02 189.81 517.03 190.84 518.26 190.84C519.18 190.84 523.79 190.84 532.07 190.84C533.56 190.15 534.31 189.39 534.31 188.55Z" id="a4UcpmfTD"></path><path d="M414.35 224.53C414.35 224.08 414.35 220.5 414.35 220.06C414.35 218.75 413.3 217.87 412.07 217.73C409.6 217.47 389.85 215.38 387.38 215.12C386.15 214.98 385.1 216.19 385.1 217.45C385.1 218.15 385.1 223.82 385.1 224.53C385.1 225.83 386.15 226.86 387.38 226.86C389.03 226.86 397.26 226.86 412.07 226.86C413.59 226.15 414.35 225.37 414.35 224.53Z" id="bglnxbc7N"></path><path d="M385.1 217.4C385.1 218.11 385.1 223.78 385.1 224.48C385.1 225.79 386.15 226.81 387.38 226.81C389.85 226.81 409.6 226.81 412.07 226.81C413.35 226.81 414.35 225.74 414.35 224.48C414.35 224.47 414.35 224.41 414.35 224.3C401.52 224.3 394.39 224.3 392.96 224.3C391.68 224.3 390.67 223.23 390.67 221.97C390.67 221.53 390.67 219.34 390.67 215.4L387.38 215.07C385.86 215.78 385.1 216.56 385.1 217.4Z" id="a1fSPzlrjK"></path><path d="M532.94 224.53C532.94 223.82 532.94 218.15 532.94 217.45C532.94 216.14 531.89 214.98 530.65 215.12C528.18 215.38 508.43 217.47 505.97 217.73C504.69 217.87 503.68 218.8 503.68 220.06C503.68 220.5 503.68 224.08 503.68 224.53C503.68 225.83 504.73 226.86 505.97 226.86C507.61 226.86 515.84 226.86 530.65 226.86C532.18 226.15 532.94 225.37 532.94 224.53Z" id="dVKK0Cgkz"></path><path d="M532.94 224.53C532.94 223.82 532.94 218.15 532.94 217.45C532.94 216.14 531.89 214.98 530.65 215.12C530.44 215.14 529.35 215.25 527.41 215.44C527.41 219.39 527.41 221.58 527.41 222.01C527.41 223.32 526.35 224.34 525.12 224.34C523.69 224.34 516.56 224.34 503.73 224.34C503.73 224.46 503.73 224.52 503.73 224.53C503.73 225.83 504.78 226.86 506.01 226.86C507.65 226.86 515.87 226.86 530.65 226.86C532.18 226.15 532.94 225.37 532.94 224.53Z" id="fUHku9a2s"></path><path d="M353.6 280.03L365.03 280.03L365.03 261.81L374.49 261.81L374.49 253.28L365.03 253.28L365.03 239.07L353.6 239.07L353.6 280.03Z" id="d1YoHPw0Br"></path><path d="M560.5 239.07L549.07 239.07L549.07 253.28L539.61 253.28L539.61 261.81L549.07 261.81L549.07 280.03L560.5 280.03L560.5 239.07Z" id="d3JovPZ1GB"></path><path d="M420.62 400.69L436.07 400.69L435.98 364.62L435.98 353.76L402.29 353.76L420.62 400.69Z" id="cqlTSDLqj"></path><path d="M426.24 303.24C425.42 303.05 424.55 302.96 423.68 302.96C422.79 302.96 415.7 302.96 414.81 302.96C408 302.96 402.42 308.65 402.42 315.59C402.42 316.43 402.42 320.64 402.42 328.22L436.11 328.22C436.11 320.64 436.11 316.43 436.11 315.59C436.11 315.5 436.11 315.45 436.11 315.36C437.44 315.59 438.95 315.73 440.64 315.73C440.64 314.9 440.64 310.73 440.64 303.24C432 303.24 427.2 303.24 426.24 303.24Z" id="bAt7oWdVq"></path><path d="M412.25 303.24C412.25 303.25 412.25 303.28 412.25 303.33L412.25 311.26C412.25 314.81 412.25 316.78 412.25 317.18C412.25 322.44 406.72 325.56 402.42 323.19C402.42 324.69 402.42 332.23 402.42 345.79L402.42 353.8L402.42 400.73L415.63 400.73L436.07 353.8L436.07 319.74L433.97 319.74L433.97 303.71L429.62 303.71L429.62 319.74L416.23 319.74L416.23 302.96L414.81 302.96C413.65 303.02 412.8 303.12 412.25 303.24Z" id="ayCkAsIQS"></path><path d="M429.12 321.42L429.12 317.5L434.47 317.5L434.47 321.42L429.12 321.42ZM430.45 320.11L433.19 320.11L433.19 318.81L430.45 318.81L430.45 320.11Z" id="b1xG9jZX7d"></path><path d="M411.61 321.42L411.61 317.5L416.96 317.5L416.96 321.42L411.61 321.42ZM412.94 320.11L415.68 320.11L415.68 318.81L412.94 318.81L412.94 320.11Z" id="a8ay0itNX"></path><path d="M429.81 307.53C436.39 305.76 440.32 298.77 438.58 292.1C438.37 291.29 437.3 287.22 435.38 279.89L410.88 286.56C413.13 295.11 414.38 299.87 414.63 300.82C416.09 306.36 421.76 309.72 427.2 308.23C427.72 308.09 429.55 307.6 429.81 307.53Z" id="bd7lpXhm2"></path><path d="M420.34 283.95C419.71 284.12 416.56 284.97 410.88 286.51L408.69 287.12C410.55 294.22 411.59 298.16 411.79 298.95C412.16 300.26 413.35 301.14 414.63 300.77C414.48 300.2 413.27 295.65 413.12 295.09C413.53 295.04 413.99 294.95 414.4 294.85C418.97 293.59 421.67 288.98 420.53 284.51C420.48 284.32 420.43 284.13 420.34 283.95Z" id="a2LAs6qGjX"></path><path d="M436.07 289.17C435.93 288.56 435.38 288.19 434.93 288.33C434.47 288.47 434.19 289.03 434.33 289.63C434.51 290.24 435.02 290.61 435.47 290.47C435.93 290.33 436.21 289.77 436.07 289.17Z" id="b1TeqPdbta"></path><path d="M429.07 291.12C428.94 290.52 428.39 290.15 427.93 290.29C427.47 290.43 427.2 290.98 427.34 291.59C427.47 292.15 427.98 292.52 428.48 292.43C428.98 292.29 429.21 291.73 429.07 291.12Z" id="h7ivJXFlJ"></path><path d="M434.88 294.9C434.46 295.02 431.09 295.95 430.67 296.06C431.36 298.72 432.87 300.63 434.06 300.35C435.2 300.03 435.61 297.6 434.88 294.9Z" id="k2DGV9fShc"></path><path d="M403.29 288.61C403.65 288.51 405.45 288.01 408.69 287.12L424.87 282.69C431.18 280.96 434.68 279.99 435.38 279.8C435.38 279.8 435.38 279.8 435.38 279.8C435.11 278.78 432.96 270.57 432.69 269.55C432.14 267.45 430.03 266.19 427.98 266.75C426.05 267.28 410.61 271.49 408.69 272.02C406.63 272.58 405.44 274.72 405.99 276.82C406.12 277.31 406.76 279.74 407.91 284.13C404.67 285.03 402.87 285.53 402.51 285.63C401.74 285.95 401.28 286.74 401.51 287.54C401.74 288.33 402.51 288.79 403.29 288.61Z" id="a1eDLS59dS"></path><path d="M435.43 279.85C435.16 278.82 433 270.62 432.73 269.59C432.18 267.5 430.08 266.24 428.02 266.8C426.89 267.11 417.86 269.57 416.73 269.87C414.67 270.43 413.49 272.58 414.03 274.67C414.21 275.36 415.11 278.78 416.73 284.93L435.43 279.85C435.43 279.85 435.43 279.85 435.43 279.85Z" id="bk8fH7xWM"></path><path d="M433.74 279.24C433.62 278.79 432.67 275.21 432.55 274.77C432.32 273.88 431.41 273.32 430.49 273.56C430 273.69 426.05 274.77 425.55 274.91C424.69 275.14 424.14 276.07 424.37 277C424.44 277.3 424.84 278.79 425.55 281.48L433.74 279.24C433.74 279.24 433.74 279.24 433.74 279.24Z" id="bp8pnbV4I"></path><path d="M410.7 318.9C410.7 309.76 410.7 304.68 410.7 303.66C404.57 304.64 398.4 306.83 398.4 318.9C400.04 318.9 404.14 318.9 410.7 318.9Z" id="aVlhoCq4"></path><path d="M411.02 318.9C411.02 318.9 411.02 318.9 411.02 318.9C411.02 320.19 411.02 320.9 411.02 321.04C411.02 321.04 411.02 321.04 411.02 321.04C403.09 321.04 398.69 321.04 397.81 321.04C397.81 321.04 397.81 321.04 397.81 321.04C397.81 319.76 397.81 319.04 397.81 318.9C397.81 318.9 397.81 318.9 397.81 318.9C405.73 318.9 410.14 318.9 411.02 318.9Z" id="a3hz0ouFIQ"></path><path d="M399.5 330.69C399.5 334.79 401.14 338.52 403.79 341.22C406.45 343.93 410.1 345.6 414.13 345.6C414.76 345.6 417.91 345.6 423.59 345.6L423.59 335.07C417.91 335.07 414.76 335.07 414.13 335.07C412.94 335.07 411.89 334.56 411.06 333.77C410.29 332.97 409.78 331.86 409.78 330.64C409.78 330 409.78 326.78 409.78 321L399.5 321C399.5 326.82 399.5 330.05 399.5 330.69Z" id="a34ib09RQG"></path><path d="M425.05 332.13C424.27 332.13 423.59 332.79 423.59 333.63C423.59 333.73 423.59 334.22 423.59 335.12L420.66 335.12L420.66 345.65L423.59 345.65L424.37 345.65C428.7 345.65 431.11 345.65 431.59 345.65C434.01 345.65 435.98 343.65 435.98 341.18C435.98 341.02 435.98 339.75 435.98 339.59C435.98 337.12 434.01 335.12 431.59 335.12C431.31 335.12 429.91 335.12 427.38 335.12C427.38 334.22 427.38 333.73 427.38 333.63C427.38 332.83 426.74 332.13 425.92 332.13C425.75 332.13 425.14 332.13 425.05 332.13Z" id="cQm5INJ7H"></path><path d="M442.7 302.87C442.7 302.87 442.7 302.87 442.7 302.87C442.7 310.95 442.7 315.44 442.7 316.34C442.7 316.34 442.7 316.34 442.7 316.34C441.44 316.34 440.73 316.34 440.59 316.34C440.59 316.34 440.59 316.34 440.59 316.34C440.59 308.26 440.59 303.77 440.59 302.87C440.59 302.87 440.59 302.87 440.59 302.87C441.86 302.87 442.56 302.87 442.7 302.87Z" id="e1iQK9bgTL"></path><path d="M466.79 290.1L456.46 290.1C456.46 295.89 456.46 299.1 456.46 299.75C456.46 300.96 455.95 302.03 455.18 302.87C454.4 303.71 453.3 304.17 452.11 304.17C451.48 304.17 448.33 304.17 442.65 304.17L442.65 314.71C448.33 314.71 451.48 314.71 452.11 314.71C456.14 314.71 459.79 313.03 462.45 310.32C465.14 307.58 466.79 303.85 466.79 299.75C466.79 298.46 466.79 295.24 466.79 290.1Z" id="dHsYEERp"></path><path d="M466.79 290.1L466.79 289.31C466.79 284.89 466.79 282.43 466.79 281.94C466.79 279.47 464.82 277.47 462.4 277.47C462.24 277.47 461 277.47 460.85 277.47C458.42 277.47 456.46 279.47 456.46 281.94C456.46 282.23 456.46 283.66 456.46 286.23C455.58 286.23 455.09 286.23 454.99 286.23C454.22 286.23 453.53 286.88 453.53 287.72C453.53 287.81 453.53 288.52 453.53 288.61C453.53 289.4 454.17 290.1 454.99 290.1C455.09 290.1 455.58 290.1 456.46 290.1L456.46 293.08L466.79 293.08L466.79 290.1Z" id="bkkTbFzZ9"></path><path d="M543.54 243.03C543.54 242.46 543.54 239.6 543.54 234.46L374.49 234.46C374.49 239.6 374.49 242.46 374.49 243.03C374.49 250.39 380.39 256.41 387.61 256.41C397.13 256.41 444.74 256.41 530.42 256.41C539.17 252.4 543.54 247.94 543.54 243.03Z" id="a3jTt2ryQT"></path><path d="M410.38 245.13C410.38 243.59 409.14 242.33 407.63 242.33C406.11 242.33 393.93 242.33 392.41 242.33C390.9 242.33 389.67 243.59 389.67 245.13C389.67 246.67 390.9 247.92 392.41 247.92C393.43 247.92 398.5 247.92 407.63 247.92C409.46 247.09 410.38 246.15 410.38 245.13Z" id="aMqodyx8h"></path><path d="M528.37 245.13C528.37 243.59 527.13 242.33 525.62 242.33C524.1 242.33 511.92 242.33 510.4 242.33C508.89 242.33 507.66 243.59 507.66 245.13C507.66 246.67 508.89 247.92 510.4 247.92C511.41 247.92 516.49 247.92 525.62 247.92C527.45 247.09 528.37 246.15 528.37 245.13Z" id="b1OdNTAuk"></path><path d="M489.6 237.07C489.6 236.13 489.6 228.68 489.6 227.75C489.6 222.2 485.17 217.68 479.73 217.68C475.58 217.68 442.41 217.68 438.26 217.68C432.82 217.68 428.39 222.2 428.39 227.75C428.39 228.68 428.39 236.13 428.39 237.07C428.39 242.61 432.82 247.13 438.26 247.13C441.03 247.13 454.85 247.13 479.73 247.13C486.31 244.12 489.6 240.76 489.6 237.07Z" id="gtgrni1yA"></path><path d="M451.29 217.68C451.29 217.68 451.29 217.68 451.29 217.68C451.29 235.35 451.29 245.17 451.29 247.13C451.29 247.13 451.29 247.13 451.29 247.13C449.56 247.13 448.6 247.13 448.41 247.13C448.41 247.13 448.41 247.13 448.41 247.13C448.41 229.46 448.41 219.64 448.41 217.68C448.41 217.68 448.41 217.68 448.41 217.68C450.14 217.68 451.1 217.68 451.29 217.68Z" id="bZEKzWHqy"></path><path d="M445.21 217.68C445.21 217.68 445.21 217.68 445.21 217.68C445.21 235.35 445.21 245.17 445.21 247.13C445.21 247.13 445.21 247.13 445.21 247.13C443.48 247.13 442.52 247.13 442.33 247.13C442.33 247.13 442.33 247.13 442.33 247.13C442.33 229.46 442.33 219.64 442.33 217.68C442.33 217.68 442.33 217.68 442.33 217.68C444.06 217.68 445.02 217.68 445.21 217.68Z" id="aDVgiLVDo"></path><path d="M457.42 217.68C457.42 217.68 457.42 217.68 457.42 217.68C457.42 235.35 457.42 245.17 457.42 247.13C457.42 247.13 457.42 247.13 457.42 247.13C455.69 247.13 454.73 247.13 454.54 247.13C454.54 247.13 454.54 247.13 454.54 247.13C454.54 229.46 454.54 219.64 454.54 217.68C454.54 217.68 454.54 217.68 454.54 217.68C456.27 217.68 457.23 217.68 457.42 217.68Z" id="a43f1MnPfh"></path><path d="M438.26 217.68C437.53 217.68 436.85 217.77 436.16 217.91C436.16 220.81 436.16 244 436.16 246.9C436.85 247.04 437.53 247.13 438.26 247.13C438.32 247.13 438.59 247.13 439.09 247.13L439.09 217.68C438.59 217.68 438.32 217.68 438.26 217.68Z" id="b3q1I9aI3"></path><path d="M479.73 217.68C479.67 217.68 479.4 217.68 478.9 217.68L478.9 247.13C479.4 247.13 479.67 247.13 479.73 247.13C480.46 247.13 481.14 247.04 481.83 246.9C481.83 244.97 481.83 235.3 481.83 217.91C480.91 217.76 480.21 217.68 479.73 217.68Z" id="f1wVyCIhX4"></path><path d="M463.5 217.68C463.5 217.68 463.5 217.68 463.5 217.68C463.5 235.35 463.5 245.17 463.5 247.13C463.5 247.13 463.5 247.13 463.5 247.13C461.77 247.13 460.81 247.13 460.62 247.13C460.62 247.13 460.62 247.13 460.62 247.13C460.62 229.46 460.62 219.64 460.62 217.68C460.62 217.68 460.62 217.68 460.62 217.68C462.35 217.68 463.31 217.68 463.5 217.68Z" id="awk4oaW1p"></path><path d="M475.7 217.68C475.7 217.68 475.7 217.68 475.7 217.68C475.7 235.35 475.7 245.17 475.7 247.13C475.7 247.13 475.7 247.13 475.7 247.13C473.97 247.13 473.01 247.13 472.82 247.13C472.82 247.13 472.82 247.13 472.82 247.13C472.82 229.46 472.82 219.64 472.82 217.68C472.82 217.68 472.82 217.68 472.82 217.68C474.55 217.68 475.51 217.68 475.7 217.68Z" id="aGeyVkN6V"></path><path d="M469.62 217.68C469.62 217.68 469.62 217.68 469.62 217.68C469.62 235.35 469.62 245.17 469.62 247.13C469.62 247.13 469.62 247.13 469.62 247.13C467.89 247.13 466.93 247.13 466.74 247.13C466.74 247.13 466.74 247.13 466.74 247.13C466.74 229.46 466.74 219.64 466.74 217.68C466.74 217.68 466.74 217.68 466.74 217.68C468.47 217.68 469.43 217.68 469.62 217.68Z" id="bp9gjH07k"></path><path d="M463.41 249.09C463.45 248.72 463.18 248.44 462.81 248.44C462.61 248.44 461.04 248.44 460.85 248.44C460.48 248.44 460.21 248.72 460.25 249.09C460.27 249.36 460.46 251.48 460.48 251.75C460.53 252.03 460.71 252.3 460.94 252.4C460.94 253.75 460.94 260.51 460.94 272.67L462.63 272.67C462.63 260.53 462.63 253.79 462.63 252.44C462.95 252.35 463.18 252.07 463.18 251.75C463.22 251.21 463.38 249.36 463.41 249.09Z" id="cfgwK10Sw"></path><path d="M465.23 273.79C465.24 273.74 465.32 273.33 465.33 273.28C465.37 272.9 465.14 272.62 464.78 272.62C464.57 272.62 463.55 272.62 461.71 272.62C459.88 272.62 458.86 272.62 458.65 272.62C458.29 272.62 458.06 272.9 458.1 273.28C458.11 273.33 458.19 273.74 458.19 273.79C458.24 274.16 458.61 274.44 458.97 274.44C458.99 274.44 459.09 274.44 459.11 274.44C459.11 274.44 459.11 274.44 459.11 274.44C459.11 275.33 459.11 282.45 459.11 283.34C459.11 284.46 460.02 285.39 461.12 285.39C461.16 285.39 461.36 285.39 461.71 285.39C462.04 285.39 462.23 285.39 462.26 285.39C463.36 285.39 464.23 284.41 464.23 283.34C464.23 282.45 464.23 275.33 464.23 274.44C464.23 274.44 464.23 274.44 464.23 274.44C464.24 274.44 464.32 274.44 464.46 274.44C464.94 274.25 465.2 274.04 465.23 273.79Z" id="bpq1zgKmJ"></path><path d="M312.91 269.83C312.91 261.53 306.24 254.77 298.15 254.77C290.06 254.77 283.38 261.58 283.38 269.83C283.38 273.75 283.38 305.1 283.38 309.02C283.38 317.32 290.01 324.07 298.15 324.07C306.29 324.07 312.91 317.32 312.91 309.02C312.91 301.18 312.91 273.75 312.91 269.83Z" id="q1cAS9X6hc"></path><path d="M298.1 324.07C306.24 324.07 312.87 317.32 312.87 309.02C312.87 305.1 312.87 273.75 312.87 269.83C312.87 261.53 306.19 254.77 298.1 254.77C296.64 254.77 295.18 255.01 293.85 255.43C299.93 257.29 304.37 263.07 304.37 269.83C304.37 273.75 304.37 305.1 304.37 309.02C304.37 315.78 299.93 321.56 293.85 323.42C295.22 323.84 296.64 324.07 298.1 324.07Z" id="bmvheC1ux"></path><path d="M314.61 284.74C314.61 284.47 314.61 282.31 314.61 282.04C314.61 280.78 313.6 279.75 312.37 279.75C309.46 279.75 286.24 279.75 283.34 279.75C282.1 279.75 281.1 280.78 281.1 282.04C281.1 282.31 281.1 284.47 281.1 284.74C281.1 286 282.1 287.02 283.34 287.02C285.27 287.02 294.95 287.02 312.37 287.02C313.86 286.34 314.61 285.58 314.61 284.74Z" id="a12ywNk3pF"></path><path d="M314.61 299.7C314.61 299.43 314.61 297.27 314.61 297C314.61 295.74 313.6 294.71 312.37 294.71C309.46 294.71 286.24 294.71 283.34 294.71C282.1 294.71 281.1 295.74 281.1 297C281.1 297.27 281.1 299.43 281.1 299.7C281.1 300.96 282.1 301.98 283.34 301.98C285.27 301.98 294.95 301.98 312.37 301.98C313.86 301.3 314.61 300.54 314.61 299.7Z" id="b9hvCoq3L"></path><path d="M304.91 251.98C304.91 248.2 301.85 245.08 298.15 245.08C294.45 245.08 291.38 248.2 291.38 251.98C291.38 252.08 291.38 252.61 291.38 253.56L291.38 256.45L304.91 256.45L304.91 253.56C304.91 252.61 304.91 252.08 304.91 251.98Z" id="b7wVJn2Xd"></path><path d="M300.57 301.98C301.75 301.98 311.19 301.98 312.37 301.98C313.6 301.98 314.61 300.96 314.61 299.7C314.61 299.43 314.61 297.27 314.61 297C314.61 295.74 313.6 294.71 312.37 294.71C311.19 294.71 301.75 294.71 300.57 294.71C299.34 294.71 298.33 295.74 298.33 297C298.33 297.18 298.33 298.08 298.33 299.7C299 301.22 299.75 301.98 300.57 301.98Z" id="b10jAO0Vle"></path><path d="M312.37 287.02C313.6 287.02 314.61 286 314.61 284.74C314.61 284.47 314.61 282.31 314.61 282.04C314.61 280.78 313.6 279.75 312.37 279.75C311.19 279.75 301.75 279.75 300.57 279.75C299.34 279.75 298.33 280.78 298.33 282.04C298.33 282.31 298.33 284.47 298.33 284.74C298.33 286 299.34 287.02 300.57 287.02C302.93 287.02 311.19 287.02 312.37 287.02Z" id="a2a6q1eyeU"></path><path d="M304.91 256.45L304.91 253.56C304.91 252.61 304.91 252.08 304.91 251.98C304.91 248.2 301.85 245.08 298.15 245.08C297.37 245.08 296.69 245.22 296 245.45C298.65 246.39 300.62 248.95 300.62 251.98C300.62 252.08 300.62 252.61 300.62 253.56L300.62 256.45L304.91 256.45Z" id="a4tPMG9Y9E"></path><path d="M269.85 273.23C269.85 273.23 269.85 273.23 269.85 273.23C269.85 349.7 269.85 392.19 269.85 400.69C269.85 400.69 269.85 400.69 269.85 400.69C226.84 400.69 202.95 400.69 198.17 400.69C198.17 400.69 198.17 400.69 198.17 400.69C198.17 324.21 198.17 281.73 198.17 273.23C198.17 273.23 198.17 273.23 198.17 273.23C241.18 273.23 265.07 273.23 269.85 273.23Z" id="b83rEc9IqT"></path><path d="M276.75 392.76C276.75 392.76 276.75 392.76 276.75 392.76C276.75 397.52 276.75 400.16 276.75 400.69C276.75 400.69 276.75 400.69 276.75 400.69C225.44 400.69 196.92 400.69 191.22 400.69C191.22 400.69 191.22 400.69 191.22 400.69C191.22 395.93 191.22 393.29 191.22 392.76C191.22 392.76 191.22 392.76 191.22 392.76C242.54 392.76 271.05 392.76 276.75 392.76Z" id="bdh0EoQrT"></path><path d="M263.22 318.06C263.22 318.06 263.22 318.06 263.22 318.06C263.22 328.99 263.22 335.07 263.22 336.28C263.22 336.28 263.22 336.28 263.22 336.28C228.14 336.28 208.65 336.28 204.75 336.28C204.75 336.28 204.75 336.28 204.75 336.28C204.75 325.35 204.75 319.28 204.75 318.06C204.75 318.06 204.75 318.06 204.75 318.06C239.84 318.06 259.32 318.06 263.22 318.06Z" id="aKkWNFb3j"></path><path d="M263.22 342.06C263.22 342.06 263.22 342.06 263.22 342.06C263.22 369.74 263.22 385.12 263.22 388.2C263.22 388.2 263.22 388.2 263.22 388.2C228.14 388.2 208.65 388.2 204.75 388.2C204.75 388.2 204.75 388.2 204.75 388.2C204.75 360.52 204.75 345.14 204.75 342.06C204.75 342.06 204.75 342.06 204.75 342.06C239.84 342.06 259.32 342.06 263.22 342.06Z" id="b3SQnxRvv0"></path><path d="M263.22 295.37C263.22 295.37 263.22 295.37 263.22 295.37C263.22 306.3 263.22 312.37 263.22 313.59C263.22 313.59 263.22 313.59 263.22 313.59C228.14 313.59 208.65 313.59 204.75 313.59C204.75 313.59 204.75 313.59 204.75 313.59C204.75 302.65 204.75 296.58 204.75 295.37C204.75 295.37 204.75 295.37 204.75 295.37C239.84 295.37 259.32 295.37 263.22 295.37Z" id="a1w3DmJIfu"></path><path d="M263.22 273.23C263.22 273.23 263.22 273.23 263.22 273.23C263.22 279.88 263.22 283.58 263.22 284.32C263.22 284.32 263.22 284.32 263.22 284.32C228.14 284.32 208.65 284.32 204.75 284.32C204.75 284.32 204.75 284.32 204.75 284.32C204.75 277.67 204.75 273.97 204.75 273.23C204.75 273.23 204.75 273.23 204.75 273.23C239.84 273.23 259.32 273.23 263.22 273.23Z" id="a2H5q3Bpep"></path><path d="M246.4 302.92C246.4 302.92 246.4 302.92 246.4 302.92C246.4 304.82 246.4 305.87 246.4 306.08C246.4 306.08 246.4 306.08 246.4 306.08C231.51 306.08 223.23 306.08 221.58 306.08C221.58 306.08 221.58 306.08 221.58 306.08C221.58 304.18 221.58 303.13 221.58 302.92C221.58 302.92 221.58 302.92 221.58 302.92C236.47 302.92 244.75 302.92 246.4 302.92Z" id="a31jV4h1IE"></path><path d="M246.4 325.61C246.4 325.61 246.4 325.61 246.4 325.61C246.4 327.51 246.4 328.57 246.4 328.78C246.4 328.78 246.4 328.78 246.4 328.78C231.51 328.78 223.23 328.78 221.58 328.78C221.58 328.78 221.58 328.78 221.58 328.78C221.58 326.88 221.58 325.82 221.58 325.61C221.58 325.61 221.58 325.61 221.58 325.61C236.47 325.61 244.75 325.61 246.4 325.61Z" id="bOZJZRAtp"></path><path d="M246.4 352.17C246.4 352.17 246.4 352.17 246.4 352.17C246.4 354.08 246.4 355.13 246.4 355.34C246.4 355.34 246.4 355.34 246.4 355.34C231.51 355.34 223.23 355.34 221.58 355.34C221.58 355.34 221.58 355.34 221.58 355.34C221.58 353.44 221.58 352.38 221.58 352.17C221.58 352.17 221.58 352.17 221.58 352.17C236.47 352.17 244.75 352.17 246.4 352.17Z" id="i1IwGydjcq"></path><path d="M259.15 241.45L208.82 241.45L208.82 270.62L228.98 270.62L228.98 280.45L223.82 280.45L223.82 284.32L228.98 284.32L238.99 284.32L244.11 284.32L244.11 280.45L238.99 280.45L238.99 270.62L259.15 270.62L259.15 241.45Z" id="acWtJu6Ue"></path><path d="M255.54 244.48C255.54 244.48 255.54 244.48 255.54 244.48C255.54 258.34 255.54 266.05 255.54 267.59C255.54 267.59 255.54 267.59 255.54 267.59C229.68 267.59 215.31 267.59 212.43 267.59C212.43 267.59 212.43 267.59 212.43 267.59C212.43 253.72 212.43 246.02 212.43 244.48C212.43 244.48 212.43 244.48 212.43 244.48C238.3 244.48 252.67 244.48 255.54 244.48Z" id="bglmNWBVm"></path><path d="M350.77 295.88C350.77 293.88 350.77 277.93 350.77 275.93C350.77 273.51 348.8 271.51 346.42 271.51C345.14 271.51 334.86 271.51 333.58 271.51C331.2 271.51 329.23 273.51 329.23 275.93C329.23 277.93 329.23 293.88 329.23 295.88C329.23 298.3 331.2 300.31 333.58 300.31C334.43 300.31 338.72 300.31 346.42 300.31C349.32 298.97 350.77 297.49 350.77 295.88Z" id="cooArBwgc"></path><path d="M350.77 296.9C350.77 294.71 350.77 277.15 350.77 274.95C350.77 273.09 349.26 271.55 347.43 271.55C346.43 271.55 338.46 271.55 337.46 271.55C335.63 271.55 334.13 273.09 334.13 274.95C334.13 277.15 334.13 294.71 334.13 296.9C334.13 298.77 335.63 300.31 337.46 300.31C338.13 300.31 341.45 300.31 347.43 300.31C349.65 299.28 350.77 298.15 350.77 296.9Z" id="b21nQSW3xX"></path><path d="M346.24 280.55C346.24 282.84 344.97 284.69 343.41 284.69C341.84 284.69 340.57 282.84 340.57 280.55C340.57 278.26 341.84 276.4 343.41 276.4C344.97 276.4 346.24 278.26 346.24 280.55Z" id="a1MnOXfTGs"></path><path d="M346.24 291.08C346.24 293.37 344.97 295.23 343.41 295.23C341.84 295.23 340.57 293.37 340.57 291.08C340.57 288.79 341.84 286.93 343.41 286.93C344.97 286.93 346.24 288.79 346.24 291.08Z" id="f1PVqAeXc"></path><path d="M504.32 321.56C483.67 321.56 472.19 321.56 469.9 321.56C459.06 321.56 450.24 330.6 450.24 341.59C450.24 352.64 459.11 361.63 469.9 361.63C474.9 361.63 514.91 361.63 519.91 361.63C530.74 361.63 539.57 352.59 539.57 341.59C539.57 330.55 530.7 321.56 519.91 321.56C519.64 321.56 518.28 321.56 515.84 321.56L515.84 316.15L504.32 316.15L504.32 321.56Z" id="beXWdsuc"></path><path d="M466.79 353.2C462.95 353.2 459.84 356.37 459.84 360.28C459.84 364.2 462.95 367.37 466.79 367.37C470.58 367.37 473.74 364.2 473.74 360.28C473.74 356.37 470.63 353.2 466.79 353.2Z" id="c3sAinlwz9"></path><path d="M466.74 356.6C464.73 356.6 463.13 358.23 463.13 360.28C463.13 362.33 464.73 363.96 466.74 363.96C468.75 363.96 470.35 362.29 470.35 360.28C470.35 358.23 468.75 356.6 466.74 356.6Z" id="d1AdWPjzr"></path><path d="M519.13 352.08C519.13 350.22 517.67 348.73 515.84 348.73C514.06 348.73 512.55 350.22 512.55 352.08C512.55 353.27 512.55 362.82 512.55 364.01C512.55 365.87 514.01 367.37 515.84 367.37C517.67 367.37 519.13 365.83 519.13 364.01C519.13 361.62 519.13 353.27 519.13 352.08Z" id="b4Sj2v2Sy"></path><path d="M523.57 370.35L508.53 370.35C499.5 370.35 494.49 370.35 493.49 370.35C489.92 370.35 486.67 371.84 484.3 374.22C481.92 376.64 480.5 379.95 480.5 383.58C480.5 387.22 481.97 390.53 484.3 392.95C486.67 395.37 489.92 396.82 493.49 396.82C496.49 396.82 520.52 396.82 523.52 396.82C526.35 396.82 528.96 398.03 530.83 399.94C532.71 401.85 533.9 404.51 533.9 407.4C533.9 410.29 532.71 412.94 530.83 414.85C528.96 416.76 526.35 417.98 523.52 417.98C523.52 418.24 523.52 420.37 523.52 420.63C527.09 420.63 530.33 419.14 532.71 416.76C535.09 414.34 536.5 411.03 536.5 407.4C536.5 403.76 535.04 400.45 532.71 398.03C530.33 395.61 527.09 394.16 523.52 394.16C520.52 394.16 496.49 394.16 493.49 394.16C490.65 394.16 488.05 392.95 486.17 391.04C484.3 389.13 483.11 386.47 483.11 383.58C483.11 380.69 484.3 378.04 486.17 376.13C488.05 374.22 490.65 373 493.49 373C494.49 373 499.5 373 508.53 373L523.57 373C532.59 373 537.6 373 538.61 373C542.17 373 545.42 371.51 547.79 369.14C550.17 366.71 551.59 363.4 551.59 359.77C551.59 356.13 550.13 352.83 547.79 350.4C545.46 347.98 542.17 346.53 538.61 346.53C538.61 346.8 538.61 348.93 538.61 349.19C541.44 349.19 544.05 350.4 545.92 352.31C547.79 354.22 548.98 356.88 548.98 359.77C548.98 362.66 547.79 365.32 545.92 367.23C544.05 369.18 541.44 370.35 538.61 370.35C536.6 370.35 531.59 370.35 523.57 370.35Z" id="a1eVGsNwJA"></path><path d="M512.18 407.02C511.31 407.02 510.67 407.77 510.63 408.61C510.51 410.16 509.56 422.58 509.44 424.13C509.39 425.01 510.17 425.71 510.99 425.71C511.26 425.71 513.42 425.71 513.69 425.71C514.56 425.71 515.25 424.97 515.25 424.13C515.25 423.99 515.25 423.29 515.25 422.03C520.02 422.03 522.67 422.03 523.2 422.03C523.98 422.03 524.57 421.38 524.57 420.63C524.57 420.31 524.57 417.7 524.57 417.37C524.57 416.58 523.93 415.97 523.2 415.97C522.67 415.97 520.02 415.97 515.25 415.97C515.25 411.55 515.25 409.1 515.25 408.61C515.25 407.77 514.56 407.02 513.69 407.02C513.39 407.02 512.33 407.02 512.18 407.02Z" id="gzWhMad7h"></path><path d="M492.75 318.29C492.75 317.24 492.75 308.77 492.75 307.72C492.75 304.78 490.38 302.36 487.5 302.36C485.81 302.36 472.36 302.36 470.67 302.36C467.79 302.36 465.42 304.78 465.42 307.72C465.42 308.77 465.42 317.24 465.42 318.29C465.42 321.23 467.79 323.65 470.67 323.65C471.8 323.65 477.4 323.65 487.5 323.65C491 322.04 492.75 320.25 492.75 318.29Z" id="j4F9Njxdib"></path><path d="M479.18 310.32C479.82 310.32 480.37 309.77 480.37 309.11C480.37 308.46 479.82 307.9 479.18 307.9C477.79 307.9 466.67 307.9 465.28 307.9C464.64 307.9 464.09 308.46 464.09 309.11C464.09 309.81 464.64 310.32 465.28 310.32C468.06 310.32 477.79 310.32 479.18 310.32Z" id="aiK1NgPu"></path><path d="M479.18 314.01C479.82 314.01 480.37 313.45 480.37 312.79C480.37 312.14 479.82 311.58 479.18 311.58C477.79 311.58 466.67 311.58 465.28 311.58C464.64 311.58 464.09 312.14 464.09 312.79C464.09 313.49 464.64 314.01 465.28 314.01C468.06 314.01 477.79 314.01 479.18 314.01Z" id="a3hBjY7tji"></path><path d="M479.18 317.69C479.82 317.69 480.37 317.13 480.37 316.48C480.37 315.82 479.82 315.26 479.18 315.26C477.79 315.26 466.67 315.26 465.28 315.26C464.64 315.26 464.09 315.82 464.09 316.48C464.09 317.18 464.64 317.69 465.28 317.69C468.06 317.69 477.79 317.69 479.18 317.69Z" id="aGb0voEu2"></path><path d="M510.08 310.74C507.83 310.74 506.01 312.6 506.01 314.89C506.01 317.18 507.83 319.04 510.08 319.04C512.33 319.04 514.15 317.18 514.15 314.89C514.15 312.6 512.33 310.74 510.08 310.74Z" id="b2zPPwwkcA"></path><path d="M484.98 300.12C484.98 300.12 484.98 300.12 484.98 300.12C484.98 301.49 484.98 302.25 484.98 302.4C484.98 302.4 484.98 302.4 484.98 302.4C480.76 302.4 478.41 302.4 477.94 302.4C477.94 302.4 477.94 302.4 477.94 302.4C477.94 301.03 477.94 300.27 477.94 300.12C477.94 300.12 477.94 300.12 477.94 300.12C482.17 300.12 484.51 300.12 484.98 300.12Z" id="c1cKFhAjLt"></path><path d="M343.45 420.49C343.45 419.17 343.45 408.62 343.45 407.3C343.45 403.2 340.16 399.85 336.14 399.85C332.12 399.85 300.01 399.85 296 399.85C291.98 399.85 288.69 403.2 288.69 407.3C288.69 408.62 288.69 419.17 288.69 420.49C288.69 424.59 291.98 427.95 296 427.95C298.68 427.95 312.05 427.95 336.14 427.95C341.01 425.71 343.45 423.23 343.45 420.49Z" id="b1IQeCJ213"></path><path d="M324.53 420.49C324.53 419.17 324.53 408.62 324.53 407.3C324.53 403.2 321.23 399.85 317.17 399.85C315.05 399.85 298.12 399.85 296 399.85C291.98 399.85 288.69 403.2 288.69 407.3C288.69 408.62 288.69 419.17 288.69 420.49C288.69 424.59 291.98 427.95 296 427.95C297.41 427.95 304.47 427.95 317.17 427.95C322.07 425.71 324.53 423.23 324.53 420.49Z" id="es97CNoCr"></path><path d="M402.79 420.49C402.79 419.17 402.79 408.62 402.79 407.3C402.79 403.2 399.5 399.85 395.47 399.85C391.46 399.85 359.35 399.85 355.34 399.85C351.31 399.85 348.02 403.2 348.02 407.3C348.02 408.62 348.02 419.17 348.02 420.49C348.02 424.59 351.31 427.95 355.34 427.95C358.01 427.95 371.39 427.95 395.47 427.95C400.35 425.71 402.79 423.23 402.79 420.49Z" id="b1HCjBaBxe"></path><path d="M383.82 420.49C383.82 419.17 383.82 408.62 383.82 407.3C383.82 403.2 380.53 399.85 376.5 399.85C374.39 399.85 357.45 399.85 355.34 399.85C351.31 399.85 348.02 403.2 348.02 407.3C348.02 408.62 348.02 419.17 348.02 420.49C348.02 424.59 351.31 427.95 355.34 427.95C356.75 427.95 363.8 427.95 376.5 427.95C381.38 425.71 383.82 423.23 383.82 420.49Z" id="b1W42YJa8Z"></path><path d="M371.75 392.76C371.75 391.45 371.75 380.89 371.75 379.58C371.75 375.47 368.46 372.12 364.43 372.12C360.42 372.12 328.31 372.12 324.3 372.12C320.27 372.12 316.98 375.47 316.98 379.58C316.98 380.89 316.98 391.45 316.98 392.76C316.98 396.87 320.27 400.22 324.3 400.22C326.97 400.22 340.35 400.22 364.43 400.22C369.31 397.98 371.75 395.5 371.75 392.76Z" id="b1avGyyyrl"></path><path d="M352.73 392.76C352.73 391.45 352.73 380.89 352.73 379.58C352.73 375.47 349.44 372.12 345.42 372.12C343.3 372.12 326.37 372.12 324.25 372.12C320.23 372.12 316.94 375.47 316.94 379.58C316.94 380.89 316.94 391.45 316.94 392.76C316.94 396.87 320.23 400.22 324.25 400.22C325.66 400.22 332.72 400.22 345.42 400.22C350.29 397.98 352.73 395.5 352.73 392.76Z" id="b12KGTEb8w"></path><path d="M468.85 397.94L468.85 397.98L467.93 399.57L467.86 399.72L467.8 399.87L467.77 400.02L467.76 400.17L467.76 400.32L467.79 400.46L467.83 400.6L467.89 400.74L467.97 400.87L468.06 400.99L468.17 401.1L468.29 401.2L468.43 401.29L468.48 401.29L468.63 401.37L468.78 401.43L468.93 401.47L469.08 401.49L469.23 401.5L469.38 401.48L469.52 401.45L469.66 401.4L469.79 401.33L469.91 401.24L470.02 401.14L470.13 401.01L470.22 400.87L471.13 399.29L471.13 399.28L471.13 399.27L471.14 399.26L471.14 399.26L471.15 399.25L471.15 399.25L471.16 399.25L471.16 399.24L471.17 399.24L471.17 399.24L471.17 399.24L471.18 399.24L471.34 399.48L471.47 399.73L471.59 399.99L471.69 400.25L471.76 400.52L471.82 400.79L471.85 401.05L471.85 401.32L471.83 401.59L471.79 401.85L471.72 402.11L471.62 402.36L471.5 402.6L471.35 402.83L471.18 403.05L471 403.25L470.8 403.42L470.58 403.58L470.35 403.71L470.11 403.82L469.85 403.91L469.59 403.97L469.32 404.01L469.04 404.03L468.76 404.03L468.48 404L461.49 416.35L461.59 416.54L461.69 416.75L461.77 416.97L461.83 417.2L461.87 417.43L461.9 417.66L461.9 417.9L461.89 418.13L461.86 418.37L461.81 418.61L461.74 418.84L461.65 419.06L461.53 419.28L461.34 419.58L461.11 419.84L460.86 420.07L460.58 420.27L460.29 420.43L459.98 420.55L459.66 420.64L459.33 420.69L458.99 420.71L458.66 420.68L458.33 420.61L458 420.5L457.69 420.35L457.65 420.31L457.35 420.11L457.08 419.88L456.85 419.62L456.65 419.34L456.49 419.03L456.36 418.72L456.28 418.39L456.23 418.05L456.22 417.7L456.25 417.36L456.32 417.01L456.44 416.67L456.59 416.35L456.72 416.14L456.86 415.95L457.01 415.77L457.17 415.61L457.35 415.46L457.53 415.34L457.73 415.23L457.92 415.13L458.13 415.06L458.34 415L458.55 414.96L458.76 414.95L458.97 414.95L466.01 402.5L465.86 402.27L465.74 402.04L465.63 401.79L465.55 401.55L465.49 401.3L465.45 401.04L465.43 400.79L465.43 400.53L465.46 400.28L465.5 400.02L465.57 399.77L465.67 399.53L465.78 399.29L465.93 399.06L466.1 398.85L466.29 398.66L466.49 398.49L466.72 398.34L466.95 398.21L467.2 398.11L467.46 398.02L467.73 397.96L468 397.92L468.28 397.9L468.56 397.91L468.85 397.94ZM458.09 416.51L457.69 417L457.5 417.59L457.54 418.2L457.81 418.75L458.29 419.19L458.29 419.21L458.29 419.21L458.3 419.21L458.33 419.23L458.91 419.42L459.5 419.37L460.04 419.1L460.43 418.63L460.63 418.04L460.59 417.43L460.34 416.87L459.89 416.44L459.25 416.22L458.63 416.25L458.09 416.51Z" id="ce8y7rlOu"></path><path d="M380.11 358.28L380.11 358.79L382.99 358.79L383.22 358.84L387.98 362.01L394.24 360.1L395.15 361.54L388.11 366.95L387.89 367.04L374.81 367.04L374.81 364.15L369.14 362.61L369.14 357.11L369.65 357.25L375.27 358.79L377.92 358.79L377.92 358.28L374.81 358.28L374.81 356.37L383.41 356.37L383.41 358.28L380.11 358.28ZM374.81 361.96L374.81 360.84L371.02 359.82L371.02 360.93L374.81 361.96Z" id="a2yEExHDVG"></path><path d="M442.88 391.69C442.88 392.76 443.29 393.7 443.98 394.4C444.66 395.09 445.62 395.51 446.63 395.51C447.92 395.51 458.27 395.51 459.57 395.51C460.62 395.51 461.53 395.09 462.22 394.4C462.9 393.7 463.31 392.72 463.31 391.69C463.31 389.79 463.31 374.54 463.31 372.63C463.31 371.56 462.9 370.63 462.22 369.93C461.53 369.23 460.57 368.81 459.57 368.81C458.77 368.81 454.77 368.81 447.59 368.81L446.31 366.57L441.6 369.32C442.42 370.78 442.88 371.59 442.97 371.75C442.97 371.84 442.93 371.89 442.93 371.98C442.88 372.17 442.88 372.4 442.88 372.63C442.88 376.44 442.88 389.79 442.88 391.69Z" id="aCF3z7XAy"></path><path d="M447.18 391.55L448.73 389.74L457.51 389.74L459.02 391.55L460.02 390.62L458.47 388.8L458.47 380L460.02 378.18L459.02 377.25L457.51 379.06L448.73 379.06L447.18 377.25L446.17 378.18L447.77 380L447.77 388.8L446.17 390.62L447.18 391.55Z" id="bMenK16jC"></path><path d="M455.77 375.57C456.37 375.57 456.87 375.34 457.28 374.92C457.28 374.92 457.28 374.92 457.28 374.92C457.65 374.54 457.92 373.98 457.92 373.38C457.92 372.77 457.69 372.26 457.28 371.84C457.28 371.84 457.28 371.84 457.28 371.84C456.91 371.47 456.37 371.19 455.77 371.19C455.11 371.19 449.81 371.19 449.14 371.19C448.55 371.19 448.05 371.42 447.63 371.84C447.63 371.84 447.63 371.84 447.63 371.84C447.27 372.21 446.99 372.77 446.99 373.38C446.99 373.98 447.22 374.5 447.63 374.92C447.63 374.92 447.63 374.92 447.63 374.92C448.05 375.29 448.59 375.57 449.14 375.57C450.47 375.57 455.11 375.57 455.77 375.57Z" id="akfqeA1tX"></path></defs><g><g><g><use xlink:href="#b1rz0YwMrH" opacity="1" fill="#e6e6e6" fill-opacity="1"></use><g><use xlink:href="#b1rz0YwMrH" opacity="1" fill-opacity="0" stroke="#000000" stroke-width="1" stroke-opacity="0"></use></g></g><g><use xlink:href="#c4l3QYAJM7" opacity="1" fill="#cccccc" fill-opacity="1"></use><g><use xlink:href="#c4l3QYAJM7" opacity="1" fill-opacity="0" stroke="#000000" stroke-width="1" stroke-opacity="0"></use></g></g><g><use xlink:href="#a9BQCpq8SL" opacity="1" fill="#ff5e41" fill-opacity="1"></use><g><use xlink:href="#a9BQCpq8SL" opacity="1" fill-opacity="0" stroke="#000000" stroke-width="1" stroke-opacity="0"></use></g></g><g><use xlink:href="#fz7LVBVjV" opacity="1" fill="#e04b31" fill-opacity="1"></use><g><use xlink:href="#fz7LVBVjV" opacity="1" fill-opacity="0" stroke="#000000" stroke-width="1" stroke-opacity="0"></use></g></g><g><use xlink:href="#a10nOubp86" opacity="1" fill="#384e5b" fill-opacity="1"></use><g><use xlink:href="#a10nOubp86" opacity="1" fill-opacity="0" stroke="#000000" stroke-width="1" stroke-opacity="0"></use></g></g><g><use xlink:href="#cefDVR7U3" opacity="1" fill="#6f8694" fill-opacity="1"></use><g><use xlink:href="#cefDVR7U3" opacity="1" fill-opacity="0" stroke="#000000" stroke-width="1" stroke-opacity="0"></use></g></g><g><use xlink:href="#fcRoei977" opacity="1" fill="#283c47" fill-opacity="1"></use><g><use xlink:href="#fcRoei977" opacity="1" fill-opacity="0" stroke="#000000" stroke-width="1" stroke-opacity="0"></use></g></g><g><use xlink:href="#a1sBZbm33Z" opacity="1" fill="#384e5b" fill-opacity="1"></use><g><use xlink:href="#a1sBZbm33Z" opacity="1" fill-opacity="0" stroke="#000000" stroke-width="1" stroke-opacity="0"></use></g></g><g><use xlink:href="#bu2KN02uM" opacity="1" fill="#6f8694" fill-opacity="1"></use><g><use xlink:href="#bu2KN02uM" opacity="1" fill-opacity="0" stroke="#000000" stroke-width="1" stroke-opacity="0"></use></g></g><g><use xlink:href="#b20IOjtg" opacity="1" fill="#6f8694" fill-opacity="1"></use><g><use xlink:href="#b20IOjtg" opacity="1" fill-opacity="0" stroke="#000000" stroke-width="1" stroke-opacity="0"></use></g></g><g><use xlink:href="#aTzdmCZwu" opacity="1" fill="#384e5b" fill-opacity="1"></use><g><use xlink:href="#aTzdmCZwu" opacity="1" fill-opacity="0" stroke="#000000" stroke-width="1" stroke-opacity="0"></use></g></g><g><use xlink:href="#b4gG6Xgsu" opacity="1" fill="#6f8694" fill-opacity="1"></use><g><use xlink:href="#b4gG6Xgsu" opacity="1" fill-opacity="0" stroke="#000000" stroke-width="1" stroke-opacity="0"></use></g></g><g><use xlink:href="#a72fG8SQt" opacity="1" fill="#283c47" fill-opacity="1"></use><g><use xlink:href="#a72fG8SQt" opacity="1" fill-opacity="0" stroke="#000000" stroke-width="1" stroke-opacity="0"></use></g></g><g><use xlink:href="#avolmybem" opacity="1" fill="#384e5b" fill-opacity="1"></use><g><use xlink:href="#avolmybem" opacity="1" fill-opacity="0" stroke="#000000" stroke-width="1" stroke-opacity="0"></use></g></g><g><use xlink:href="#c2vCR28sxC" opacity="1" fill="#6f8694" fill-opacity="1"></use><g><use xlink:href="#c2vCR28sxC" opacity="1" fill-opacity="0" stroke="#000000" stroke-width="1" stroke-opacity="0"></use></g></g><g><use xlink:href="#b12ITjZ0r" opacity="1" fill="#6f8694" fill-opacity="1"></use><g><use xlink:href="#b12ITjZ0r" opacity="1" fill-opacity="0" stroke="#000000" stroke-width="1" stroke-opacity="0"></use></g></g><g><use xlink:href="#cYzri3V93" opacity="1" fill="#283c47" fill-opacity="1"></use><g><use xlink:href="#cYzri3V93" opacity="1" fill-opacity="0" stroke="#000000" stroke-width="1" stroke-opacity="0"></use></g></g><g><use xlink:href="#dhxj21TF9" opacity="1" fill="#283c47" fill-opacity="1"></use><g><use xlink:href="#dhxj21TF9" opacity="1" fill-opacity="0" stroke="#000000" stroke-width="1" stroke-opacity="0"></use></g></g><g><use xlink:href="#aNIBeVeuu" opacity="1" fill="#ff5e41" fill-opacity="1"></use><g><use xlink:href="#aNIBeVeuu" opacity="1" fill-opacity="0" stroke="#000000" stroke-width="1" stroke-opacity="0"></use></g></g><g><use xlink:href="#eZOkbeqiY" opacity="1" fill="#f77963" fill-opacity="1"></use><g><use xlink:href="#eZOkbeqiY" opacity="1" fill-opacity="0" stroke="#000000" stroke-width="1" stroke-opacity="0"></use></g></g><g><use xlink:href="#b1OQdeTX1" opacity="1" fill="#283c47" fill-opacity="1"></use><g><use xlink:href="#b1OQdeTX1" opacity="1" fill-opacity="0" stroke="#000000" stroke-width="1" stroke-opacity="0"></use></g></g><g><use xlink:href="#dgXFyN8wY" opacity="1" fill="#6f8694" fill-opacity="1"></use><g><use xlink:href="#dgXFyN8wY" opacity="1" fill-opacity="0" stroke="#000000" stroke-width="1" stroke-opacity="0"></use></g></g><g><use xlink:href="#bbgIaI7Hm" opacity="1" fill="#ff5e41" fill-opacity="1"></use><g><use xlink:href="#bbgIaI7Hm" opacity="1" fill-opacity="0" stroke="#000000" stroke-width="1" stroke-opacity="0"></use></g></g><g><use xlink:href="#a4UcpmfTD" opacity="1" fill="#ff5e41" fill-opacity="1"></use><g><use xlink:href="#a4UcpmfTD" opacity="1" fill-opacity="0" stroke="#000000" stroke-width="1" stroke-opacity="0"></use></g></g><g><use xlink:href="#bglnxbc7N" opacity="1" fill="#ffffff" fill-opacity="1"></use><g><use xlink:href="#bglnxbc7N" opacity="1" fill-opacity="0" stroke="#000000" stroke-width="1" stroke-opacity="0"></use></g></g><g><use xlink:href="#a1fSPzlrjK" opacity="1" fill="#e6e6e6" fill-opacity="1"></use><g><use xlink:href="#a1fSPzlrjK" opacity="1" fill-opacity="0" stroke="#000000" stroke-width="1" stroke-opacity="0"></use></g></g><g><use xlink:href="#dVKK0Cgkz" opacity="1" fill="#ffffff" fill-opacity="1"></use><g><use xlink:href="#dVKK0Cgkz" opacity="1" fill-opacity="0" stroke="#000000" stroke-width="1" stroke-opacity="0"></use></g></g><g><use xlink:href="#fUHku9a2s" opacity="1" fill="#e6e6e6" fill-opacity="1"></use><g><use xlink:href="#fUHku9a2s" opacity="1" fill-opacity="0" stroke="#000000" stroke-width="1" stroke-opacity="0"></use></g></g><g><use xlink:href="#d1YoHPw0Br" opacity="1" fill="#283c47" fill-opacity="1"></use><g><use xlink:href="#d1YoHPw0Br" opacity="1" fill-opacity="0" stroke="#000000" stroke-width="1" stroke-opacity="0"></use></g></g><g><use xlink:href="#d3JovPZ1GB" opacity="1" fill="#283c47" fill-opacity="1"></use><g><use xlink:href="#d3JovPZ1GB" opacity="1" fill-opacity="0" stroke="#000000" stroke-width="1" stroke-opacity="0"></use></g></g><g><use xlink:href="#cqlTSDLqj" opacity="1" fill="#283c47" fill-opacity="1"></use><g><use xlink:href="#cqlTSDLqj" opacity="1" fill-opacity="0" stroke="#000000" stroke-width="1" stroke-opacity="0"></use></g></g><g><use xlink:href="#bAt7oWdVq" opacity="1" fill="#b9b7ba" fill-opacity="1"></use><g><use xlink:href="#bAt7oWdVq" opacity="1" fill-opacity="0" stroke="#000000" stroke-width="1" stroke-opacity="0"></use></g></g><g><use xlink:href="#ayCkAsIQS" opacity="1" fill="#384e5b" fill-opacity="1"></use><g><use xlink:href="#ayCkAsIQS" opacity="1" fill-opacity="0" stroke="#000000" stroke-width="1" stroke-opacity="0"></use></g></g><g><use xlink:href="#b1xG9jZX7d" opacity="1" fill="#cccccc" fill-opacity="1"></use><g><use xlink:href="#b1xG9jZX7d" opacity="1" fill-opacity="0" stroke="#000000" stroke-width="1" stroke-opacity="0"></use></g></g><g><use xlink:href="#a8ay0itNX" opacity="1" fill="#cccccc" fill-opacity="1"></use><g><use xlink:href="#a8ay0itNX" opacity="1" fill-opacity="0" stroke="#000000" stroke-width="1" stroke-opacity="0"></use></g></g><g><use xlink:href="#bd7lpXhm2" opacity="1" fill="#fcd1c0" fill-opacity="1"></use><g><use xlink:href="#bd7lpXhm2" opacity="1" fill-opacity="0" stroke="#000000" stroke-width="1" stroke-opacity="0"></use></g></g><g><use xlink:href="#a2LAs6qGjX" opacity="1" fill="#283c47" fill-opacity="1"></use><g><use xlink:href="#a2LAs6qGjX" opacity="1" fill-opacity="0" stroke="#000000" stroke-width="1" stroke-opacity="0"></use></g></g><g><use xlink:href="#b1TeqPdbta" opacity="1" fill="#1e3b59" fill-opacity="1"></use><g><use xlink:href="#b1TeqPdbta" opacity="1" fill-opacity="0" stroke="#000000" stroke-width="1" stroke-opacity="0"></use></g></g><g><use xlink:href="#h7ivJXFlJ" opacity="1" fill="#1e3b59" fill-opacity="1"></use><g><use xlink:href="#h7ivJXFlJ" opacity="1" fill-opacity="0" stroke="#000000" stroke-width="1" stroke-opacity="0"></use></g></g><g><use xlink:href="#k2DGV9fShc" opacity="1" fill="#ffffff" fill-opacity="1"></use><g><use xlink:href="#k2DGV9fShc" opacity="1" fill-opacity="0" stroke="#000000" stroke-width="1" stroke-opacity="0"></use></g></g><g><use xlink:href="#a1eDLS59dS" opacity="1" fill="#384e5b" fill-opacity="1"></use><g><use xlink:href="#a1eDLS59dS" opacity="1" fill-opacity="0" stroke="#000000" stroke-width="1" stroke-opacity="0"></use></g></g><g><use xlink:href="#bk8fH7xWM" opacity="1" fill="#b9b7ba" fill-opacity="1"></use><g><use xlink:href="#bk8fH7xWM" opacity="1" fill-opacity="0" stroke="#000000" stroke-width="1" stroke-opacity="0"></use></g></g><g><use xlink:href="#bp8pnbV4I" opacity="1" fill="#283c47" fill-opacity="1"></use><g><use xlink:href="#bp8pnbV4I" opacity="1" fill-opacity="0" stroke="#000000" stroke-width="1" stroke-opacity="0"></use></g></g><g><use xlink:href="#aVlhoCq4" opacity="1" fill="#b9b7ba" fill-opacity="1"></use><g><use xlink:href="#aVlhoCq4" opacity="1" fill-opacity="0" stroke="#000000" stroke-width="1" stroke-opacity="0"></use></g></g><g><use xlink:href="#a3hz0ouFIQ" opacity="1" fill="#cccccc" fill-opacity="1"></use><g><use xlink:href="#a3hz0ouFIQ" opacity="1" fill-opacity="0" stroke="#000000" stroke-width="1" stroke-opacity="0"></use></g></g><g><use xlink:href="#a34ib09RQG" opacity="1" fill="#fcd1c0" fill-opacity="1"></use><g><use xlink:href="#a34ib09RQG" opacity="1" fill-opacity="0" stroke="#000000" stroke-width="1" stroke-opacity="0"></use></g></g><g><use xlink:href="#cQm5INJ7H" opacity="1" fill="#b9b7ba" fill-opacity="1"></use><g><use xlink:href="#cQm5INJ7H" opacity="1" fill-opacity="0" stroke="#000000" stroke-width="1" stroke-opacity="0"></use></g></g><g><use xlink:href="#e1iQK9bgTL" opacity="1" fill="#cccccc" fill-opacity="1"></use><g><use xlink:href="#e1iQK9bgTL" opacity="1" fill-opacity="0" stroke="#000000" stroke-width="1" stroke-opacity="0"></use></g></g><g><use xlink:href="#dHsYEERp" opacity="1" fill="#fcd1c0" fill-opacity="1"></use><g><use xlink:href="#dHsYEERp" opacity="1" fill-opacity="0" stroke="#000000" stroke-width="1" stroke-opacity="0"></use></g></g><g><use xlink:href="#bkkTbFzZ9" opacity="1" fill="#b9b7ba" fill-opacity="1"></use><g><use xlink:href="#bkkTbFzZ9" opacity="1" fill-opacity="0" stroke="#000000" stroke-width="1" stroke-opacity="0"></use></g></g><g><use xlink:href="#a3jTt2ryQT" opacity="1" fill="#e04b31" fill-opacity="1"></use><g><use xlink:href="#a3jTt2ryQT" opacity="1" fill-opacity="0" stroke="#000000" stroke-width="1" stroke-opacity="0"></use></g></g><g><use xlink:href="#aMqodyx8h" opacity="1" fill="#283c47" fill-opacity="1"></use><g><use xlink:href="#aMqodyx8h" opacity="1" fill-opacity="0" stroke="#000000" stroke-width="1" stroke-opacity="0"></use></g></g><g><use xlink:href="#b1OdNTAuk" opacity="1" fill="#283c47" fill-opacity="1"></use><g><use xlink:href="#b1OdNTAuk" opacity="1" fill-opacity="0" stroke="#000000" stroke-width="1" stroke-opacity="0"></use></g></g><g><use xlink:href="#gtgrni1yA" opacity="1" fill="#283c47" fill-opacity="1"></use><g><use xlink:href="#gtgrni1yA" opacity="1" fill-opacity="0" stroke="#000000" stroke-width="1" stroke-opacity="0"></use></g></g><g><use xlink:href="#bZEKzWHqy" opacity="1" fill="#384e5b" fill-opacity="1"></use><g><use xlink:href="#bZEKzWHqy" opacity="1" fill-opacity="0" stroke="#000000" stroke-width="1" stroke-opacity="0"></use></g></g><g><use xlink:href="#aDVgiLVDo" opacity="1" fill="#384e5b" fill-opacity="1"></use><g><use xlink:href="#aDVgiLVDo" opacity="1" fill-opacity="0" stroke="#000000" stroke-width="1" stroke-opacity="0"></use></g></g><g><use xlink:href="#a43f1MnPfh" opacity="1" fill="#384e5b" fill-opacity="1"></use><g><use xlink:href="#a43f1MnPfh" opacity="1" fill-opacity="0" stroke="#000000" stroke-width="1" stroke-opacity="0"></use></g></g><g><use xlink:href="#b3q1I9aI3" opacity="1" fill="#384e5b" fill-opacity="1"></use><g><use xlink:href="#b3q1I9aI3" opacity="1" fill-opacity="0" stroke="#000000" stroke-width="1" stroke-opacity="0"></use></g></g><g><use xlink:href="#f1wVyCIhX4" opacity="1" fill="#384e5b" fill-opacity="1"></use><g><use xlink:href="#f1wVyCIhX4" opacity="1" fill-opacity="0" stroke="#000000" stroke-width="1" stroke-opacity="0"></use></g></g><g><use xlink:href="#awk4oaW1p" opacity="1" fill="#384e5b" fill-opacity="1"></use><g><use xlink:href="#awk4oaW1p" opacity="1" fill-opacity="0" stroke="#000000" stroke-width="1" stroke-opacity="0"></use></g></g><g><use xlink:href="#aGeyVkN6V" opacity="1" fill="#384e5b" fill-opacity="1"></use><g><use xlink:href="#aGeyVkN6V" opacity="1" fill-opacity="0" stroke="#000000" stroke-width="1" stroke-opacity="0"></use></g></g><g><use xlink:href="#bp9gjH07k" opacity="1" fill="#384e5b" fill-opacity="1"></use><g><use xlink:href="#bp9gjH07k" opacity="1" fill-opacity="0" stroke="#000000" stroke-width="1" stroke-opacity="0"></use></g></g><g><use xlink:href="#cfgwK10Sw" opacity="1" fill="#777777" fill-opacity="1"></use><g><use xlink:href="#cfgwK10Sw" opacity="1" fill-opacity="0" stroke="#000000" stroke-width="1" stroke-opacity="0"></use></g></g><g><use xlink:href="#bpq1zgKmJ" opacity="1" fill="#ff5e41" fill-opacity="1"></use><g><use xlink:href="#bpq1zgKmJ" opacity="1" fill-opacity="0" stroke="#000000" stroke-width="1" stroke-opacity="0"></use></g></g><g><use xlink:href="#q1cAS9X6hc" opacity="1" fill="#384e5b" fill-opacity="1"></use><g><use xlink:href="#q1cAS9X6hc" opacity="1" fill-opacity="0" stroke="#000000" stroke-width="1" stroke-opacity="0"></use></g></g><g><use xlink:href="#bmvheC1ux" opacity="1" fill="#283c47" fill-opacity="1"></use><g><use xlink:href="#bmvheC1ux" opacity="1" fill-opacity="0" stroke="#000000" stroke-width="1" stroke-opacity="0"></use></g></g><g><use xlink:href="#a12ywNk3pF" opacity="1" fill="#6f8694" fill-opacity="1"></use><g><use xlink:href="#a12ywNk3pF" opacity="1" fill-opacity="0" stroke="#000000" stroke-width="1" stroke-opacity="0"></use></g></g><g><use xlink:href="#b9hvCoq3L" opacity="1" fill="#6f8694" fill-opacity="1"></use><g><use xlink:href="#b9hvCoq3L" opacity="1" fill-opacity="0" stroke="#000000" stroke-width="1" stroke-opacity="0"></use></g></g><g><use xlink:href="#b7wVJn2Xd" opacity="1" fill="#6f8694" fill-opacity="1"></use><g><use xlink:href="#b7wVJn2Xd" opacity="1" fill-opacity="0" stroke="#000000" stroke-width="1" stroke-opacity="0"></use></g></g><g><use xlink:href="#b10jAO0Vle" opacity="1" fill="#384e5b" fill-opacity="1"></use><g><use xlink:href="#b10jAO0Vle" opacity="1" fill-opacity="0" stroke="#000000" stroke-width="1" stroke-opacity="0"></use></g></g><g><use xlink:href="#a2a6q1eyeU" opacity="1" fill="#384e5b" fill-opacity="1"></use><g><use xlink:href="#a2a6q1eyeU" opacity="1" fill-opacity="0" stroke="#000000" stroke-width="1" stroke-opacity="0"></use></g></g><g><use xlink:href="#a4tPMG9Y9E" opacity="1" fill="#384e5b" fill-opacity="1"></use><g><use xlink:href="#a4tPMG9Y9E" opacity="1" fill-opacity="0" stroke="#000000" stroke-width="1" stroke-opacity="0"></use></g></g><g><use xlink:href="#b83rEc9IqT" opacity="1" fill="#384e5b" fill-opacity="1"></use><g><use xlink:href="#b83rEc9IqT" opacity="1" fill-opacity="0" stroke="#000000" stroke-width="1" stroke-opacity="0"></use></g></g><g><use xlink:href="#bdh0EoQrT" opacity="1" fill="#283c47" fill-opacity="1"></use><g><use xlink:href="#bdh0EoQrT" opacity="1" fill-opacity="0" stroke="#000000" stroke-width="1" stroke-opacity="0"></use></g></g><g><use xlink:href="#aKkWNFb3j" opacity="1" fill="#283c47" fill-opacity="1"></use><g><use xlink:href="#aKkWNFb3j" opacity="1" fill-opacity="0" stroke="#000000" stroke-width="1" stroke-opacity="0"></use></g></g><g><use xlink:href="#b3SQnxRvv0" opacity="1" fill="#283c47" fill-opacity="1"></use><g><use xlink:href="#b3SQnxRvv0" opacity="1" fill-opacity="0" stroke="#000000" stroke-width="1" stroke-opacity="0"></use></g></g><g><use xlink:href="#a1w3DmJIfu" opacity="1" fill="#283c47" fill-opacity="1"></use><g><use xlink:href="#a1w3DmJIfu" opacity="1" fill-opacity="0" stroke="#000000" stroke-width="1" stroke-opacity="0"></use></g></g><g><use xlink:href="#a2H5q3Bpep" opacity="1" fill="#283c47" fill-opacity="1"></use><g><use xlink:href="#a2H5q3Bpep" opacity="1" fill-opacity="0" stroke="#000000" stroke-width="1" stroke-opacity="0"></use></g></g><g><use xlink:href="#a31jV4h1IE" opacity="1" fill="#6f8694" fill-opacity="1"></use><g><use xlink:href="#a31jV4h1IE" opacity="1" fill-opacity="0" stroke="#000000" stroke-width="1" stroke-opacity="0"></use></g></g><g><use xlink:href="#bOZJZRAtp" opacity="1" fill="#6f8694" fill-opacity="1"></use><g><use xlink:href="#bOZJZRAtp" opacity="1" fill-opacity="0" stroke="#000000" stroke-width="1" stroke-opacity="0"></use></g></g><g><use xlink:href="#i1IwGydjcq" opacity="1" fill="#6f8694" fill-opacity="1"></use><g><use xlink:href="#i1IwGydjcq" opacity="1" fill-opacity="0" stroke="#000000" stroke-width="1" stroke-opacity="0"></use></g></g><g><use xlink:href="#acWtJu6Ue" opacity="1" fill="#6f8694" fill-opacity="1"></use><g><use xlink:href="#acWtJu6Ue" opacity="1" fill-opacity="0" stroke="#000000" stroke-width="1" stroke-opacity="0"></use></g></g><g><use xlink:href="#bglmNWBVm" opacity="1" fill="#384e5b" fill-opacity="1"></use><g><use xlink:href="#bglmNWBVm" opacity="1" fill-opacity="0" stroke="#000000" stroke-width="1" stroke-opacity="0"></use></g></g><g><use xlink:href="#cooArBwgc" opacity="1" fill="#6f8694" fill-opacity="1"></use><g><use xlink:href="#cooArBwgc" opacity="1" fill-opacity="0" stroke="#000000" stroke-width="1" stroke-opacity="0"></use></g></g><g><use xlink:href="#b21nQSW3xX" opacity="1" fill="#384e5b" fill-opacity="1"></use><g><use xlink:href="#b21nQSW3xX" opacity="1" fill-opacity="0" stroke="#000000" stroke-width="1" stroke-opacity="0"></use></g></g><g><use xlink:href="#a1MnOXfTGs" opacity="1" fill="#6f8694" fill-opacity="1"></use><g><use xlink:href="#a1MnOXfTGs" opacity="1" fill-opacity="0" stroke="#000000" stroke-width="1" stroke-opacity="0"></use></g></g><g><use xlink:href="#f1PVqAeXc" opacity="1" fill="#6f8694" fill-opacity="1"></use><g><use xlink:href="#f1PVqAeXc" opacity="1" fill-opacity="0" stroke="#000000" stroke-width="1" stroke-opacity="0"></use></g></g><g><use xlink:href="#beXWdsuc" opacity="1" fill="#384e5b" fill-opacity="1"></use><g><use xlink:href="#beXWdsuc" opacity="1" fill-opacity="0" stroke="#000000" stroke-width="1" stroke-opacity="0"></use></g></g><g><use xlink:href="#c3sAinlwz9" opacity="1" fill="#6f8694" fill-opacity="1"></use><g><use xlink:href="#c3sAinlwz9" opacity="1" fill-opacity="0" stroke="#000000" stroke-width="1" stroke-opacity="0"></use></g></g><g><use xlink:href="#d1AdWPjzr" opacity="1" fill="#384e5b" fill-opacity="1"></use><g><use xlink:href="#d1AdWPjzr" opacity="1" fill-opacity="0" stroke="#000000" stroke-width="1" stroke-opacity="0"></use></g></g><g><use xlink:href="#b4Sj2v2Sy" opacity="1" fill="#384e5b" fill-opacity="1"></use><g><use xlink:href="#b4Sj2v2Sy" opacity="1" fill-opacity="0" stroke="#000000" stroke-width="1" stroke-opacity="0"></use></g></g><g><use xlink:href="#a1eVGsNwJA" opacity="1" fill="#384e5b" fill-opacity="1"></use><g><use xlink:href="#a1eVGsNwJA" opacity="1" fill-opacity="0" stroke="#000000" stroke-width="1" stroke-opacity="0"></use></g></g><g><use xlink:href="#gzWhMad7h" opacity="1" fill="#6f8694" fill-opacity="1"></use><g><use xlink:href="#gzWhMad7h" opacity="1" fill-opacity="0" stroke="#000000" stroke-width="1" stroke-opacity="0"></use></g></g><g><use xlink:href="#j4F9Njxdib" opacity="1" fill="#6f8694" fill-opacity="1"></use><g><use xlink:href="#j4F9Njxdib" opacity="1" fill-opacity="0" stroke="#000000" stroke-width="1" stroke-opacity="0"></use></g></g><g><use xlink:href="#aiK1NgPu" opacity="1" fill="#384e5b" fill-opacity="1"></use><g><use xlink:href="#aiK1NgPu" opacity="1" fill-opacity="0" stroke="#000000" stroke-width="1" stroke-opacity="0"></use></g></g><g><use xlink:href="#a3hBjY7tji" opacity="1" fill="#384e5b" fill-opacity="1"></use><g><use xlink:href="#a3hBjY7tji" opacity="1" fill-opacity="0" stroke="#000000" stroke-width="1" stroke-opacity="0"></use></g></g><g><use xlink:href="#aGb0voEu2" opacity="1" fill="#384e5b" fill-opacity="1"></use><g><use xlink:href="#aGb0voEu2" opacity="1" fill-opacity="0" stroke="#000000" stroke-width="1" stroke-opacity="0"></use></g></g><g><use xlink:href="#b2zPPwwkcA" opacity="1" fill="#6f8694" fill-opacity="1"></use><g><use xlink:href="#b2zPPwwkcA" opacity="1" fill-opacity="0" stroke="#000000" stroke-width="1" stroke-opacity="0"></use></g></g><g><use xlink:href="#c1cKFhAjLt" opacity="1" fill="#384e5b" fill-opacity="1"></use><g><use xlink:href="#c1cKFhAjLt" opacity="1" fill-opacity="0" stroke="#000000" stroke-width="1" stroke-opacity="0"></use></g></g><g><use xlink:href="#b1IQeCJ213" opacity="1" fill="#283c47" fill-opacity="1"></use><g><use xlink:href="#b1IQeCJ213" opacity="1" fill-opacity="0" stroke="#000000" stroke-width="1" stroke-opacity="0"></use></g></g><g><use xlink:href="#es97CNoCr" opacity="1" fill="#384e5b" fill-opacity="1"></use><g><use xlink:href="#es97CNoCr" opacity="1" fill-opacity="0" stroke="#000000" stroke-width="1" stroke-opacity="0"></use></g></g><g><use xlink:href="#b1HCjBaBxe" opacity="1" fill="#283c47" fill-opacity="1"></use><g><use xlink:href="#b1HCjBaBxe" opacity="1" fill-opacity="0" stroke="#000000" stroke-width="1" stroke-opacity="0"></use></g></g><g><use xlink:href="#b1W42YJa8Z" opacity="1" fill="#384e5b" fill-opacity="1"></use><g><use xlink:href="#b1W42YJa8Z" opacity="1" fill-opacity="0" stroke="#000000" stroke-width="1" stroke-opacity="0"></use></g></g><g><use xlink:href="#b1avGyyyrl" opacity="1" fill="#283c47" fill-opacity="1"></use><g><use xlink:href="#b1avGyyyrl" opacity="1" fill-opacity="0" stroke="#000000" stroke-width="1" stroke-opacity="0"></use></g></g><g><use xlink:href="#b12KGTEb8w" opacity="1" fill="#384e5b" fill-opacity="1"></use><g><use xlink:href="#b12KGTEb8w" opacity="1" fill-opacity="0" stroke="#000000" stroke-width="1" stroke-opacity="0"></use></g></g><g><use xlink:href="#ce8y7rlOu" opacity="1" fill="#384e5b" fill-opacity="1"></use><g><use xlink:href="#ce8y7rlOu" opacity="1" fill-opacity="0" stroke="#000000" stroke-width="1" stroke-opacity="0"></use></g></g><g><use xlink:href="#a2yEExHDVG" opacity="1" fill="#384e5b" fill-opacity="1"></use><g><use xlink:href="#a2yEExHDVG" opacity="1" fill-opacity="0" stroke="#000000" stroke-width="1" stroke-opacity="0"></use></g></g><g><use xlink:href="#aCF3z7XAy" opacity="1" fill="#384e5b" fill-opacity="1"></use><g><use xlink:href="#aCF3z7XAy" opacity="1" fill-opacity="0" stroke="#000000" stroke-width="1" stroke-opacity="0"></use></g></g><g><use xlink:href="#bMenK16jC" opacity="1" fill="#283c47" fill-opacity="1"></use><g><use xlink:href="#bMenK16jC" opacity="1" fill-opacity="0" stroke="#000000" stroke-width="1" stroke-opacity="0"></use></g></g><g><use xlink:href="#akfqeA1tX" opacity="1" fill="#ff5e41" fill-opacity="1"></use><g><use xlink:href="#akfqeA1tX" opacity="1" fill-opacity="0" stroke="#000000" stroke-width="1" stroke-opacity="0"></use></g></g></g></g></svg>